<svg xmlns="http://www.w3.org/2000/svg" width="14" height="14" fill="none" class="_af8a _9u4c"><path d="M2.904 10.59c0 .365.324.663.722.663h.824v1.881c0 .477.415.866.925.866s.924-.387.924-.866v-1.882h1.44v1.88c0 .477.414.866.924.866.511 0 .924-.387.924-.865v-1.881h.825c.398 0 .721-.299.721-.664V4.413H2.904v6.176zM8.95 1.212L9.71.197c.045-.059.035-.139-.025-.178-.059-.037-.144-.018-.188.041l-.789 1.056A5.002 5.002 0 007.002.822c-.608 0-1.187.105-1.707.294L4.506.062c-.044-.06-.129-.08-.188-.041-.06.037-.07.116-.025.178l.76 1.016c-1.209.518-2.056 1.501-2.164 2.65h8.229c-.112-1.15-.96-2.133-2.168-2.652zM5.265 2.815a.483.483 0 01-.254-.071.43.43 0 01-.167-.189.39.39 0 01-.026-.243.411.411 0 01.124-.215.49.49 0 01.496-.091.45.45 0 01.205.155c.05.069.077.15.077.233a.406.406 0 01-.134.297.477.477 0 01-.321.124zm3.528 0a.483.483 0 01-.253-.071.43.43 0 01-.168-.189.39.39 0 01-.026-.243.411.411 0 01.125-.215.49.49 0 01.496-.091.45.45 0 01.205.155c.05.069.076.15.076.233a.406.406 0 01-.133.297.477.477 0 01-.322.124zm3.783 1.573c-.512 0-.925.387-.925.866v3.38c0 .477.415.866.925.866s.924-.387.924-.865V5.252c.002-.478-.411-.864-.925-.864zm-11.152 0c-.51 0-.924.387-.924.866v3.38c0 .477.415.866.924.866.512 0 .925-.387.925-.865V5.252c0-.478-.415-.864-.925-.864z" fill="currentColor"/></svg>